<svg width="481px" height="61px" viewBox="0 0 481 61" version="1.1" xmlns="http://www.w3.org/2000/svg" xmlns:xlink="http://www.w3.org/1999/xlink">
    <title>Group 11</title>
    <g id="Foundation-Microsite" stroke="none" stroke-width="1" fill="none" fill-rule="evenodd">
        <g id="Desktop/Zoetis-Foundation" transform="translate(-76.000000, -306.000000)" fill="#FFFFFF" fill-rule="nonzero">
            <g id="Group-11" transform="translate(76.000000, 306.000000)">
                <path d="M190.305882,18.8271955 L185,18.8271955 L185,14.6203966 L190.305882,14.6203966 L190.305882,12.1983003 C190.305882,4.16713881 194.576471,2 199.105882,2 C201.952941,2 204.670588,2.76487252 207,4.16713881 L205.317647,7.99150142 C203.764706,6.97167139 201.952941,6.46175637 200.141176,6.33427762 C197.552941,6.33427762 195.352941,7.60906516 195.352941,12.7082153 L195.352941,14.7478754 L205.835294,14.7478754 L205.835294,18.9546742 L195.352941,18.9546742 L195.352941,47 L190.176471,47 L190.305882,18.8271955 Z" id="Path"></path>
                <path d="M205.12686,30.1909932 C205,20.7686564 212.484725,13.1289238 221.872346,13.0015949 C231.259967,12.8742661 238.871551,20.3866698 238.998411,29.8090066 C239.125271,39.2313435 231.640546,46.871076 222.252925,46.9984049 C222.126065,46.9984049 222.126065,46.9984049 221.999205,46.9984049 C212.738444,47.1257338 205.12686,39.6133301 205,30.445651 C205.12686,30.3183221 205.12686,30.3183221 205.12686,30.1909932 Z M233.924021,30.1909932 C234.177741,23.6972205 228.976491,18.2220789 222.506644,17.9674211 C216.036798,17.7127634 210.581829,22.9332473 210.328109,29.42702 C210.328109,29.6816777 210.328109,29.9363355 210.328109,30.1909932 C210.07439,36.6847659 215.275639,42.1599076 221.745486,42.4145654 C228.215333,42.6692231 233.670302,37.4487392 233.924021,30.9549665 C233.924021,30.7003087 233.924021,30.445651 233.924021,30.1909932 Z" id="Shape"></path>
                <path d="M243,34.2558835 L243,14 L248.16129,14 L248.16129,33.4915105 C248.16129,39.6064942 251.129032,42.0270086 256.419355,42.0270086 C262.354839,42.0270086 265.83871,37.1859798 265.83871,32.2175556 L265.83871,14 L271,14 L271,46.3584554 L266.096774,46.3584554 L266.096774,40.6256581 C263.903226,44.5749184 259.645161,47.1228283 255,46.9954328 C246.870968,46.9954328 243,42.7913815 243,34.2558835 Z" id="Path"></path>
                <path d="M277.126697,14.7662032 L282.19457,14.7662032 L282.19457,20.2231058 C284.475113,16.2890597 288.782805,13.8778702 293.343891,14.0047749 C301.452489,14.0047749 305,18.9540587 305,27.4566744 L305,47 L299.932127,47 L299.932127,28.0911979 C299.932127,22.1266765 297.778281,18.9540587 291.950226,18.9540587 C286.628959,18.827154 282.19457,23.1419142 282.067873,28.4719121 C282.067873,28.5988168 282.067873,28.7257215 282.067873,28.8526262 L282.067873,47 L277,47 L277.126697,14.7662032 Z" id="Path"></path>
                <path d="M308,30.8510029 C308,21.1805158 314.470588,13.7020057 323.529412,13.7020057 C328.835294,13.7020057 333.494118,15.8939828 335.823529,20.1489971 L335.823529,3 L341,3 L341,47.226361 L336.082353,47.226361 L336.082353,41.5530086 C333.623529,45.8080229 328.835294,48 323.529412,48 C314.470588,47.8710602 308,40.3925501 308,30.8510029 Z M335.952941,30.8510029 C335.952941,24.017192 331.035294,18.730659 324.694118,18.730659 C318.094118,18.730659 313.305882,23.8882521 313.305882,30.8510029 C313.305882,37.8137536 318.223529,42.9713467 324.694118,42.9713467 C331.035294,42.9713467 335.952941,37.8137536 335.952941,30.8510029 Z" id="Shape"></path>
                <path d="M345,30.0641509 C345,20.4415094 351.470588,13 360.529412,13 C365.835294,13 370.494118,15.1811321 372.823529,19.4150943 L372.823529,13.6415094 L378,13.6415094 L378,46.2301887 L372.823529,46.2301887 L372.823529,40.5849057 C370.364706,44.8188679 365.705882,47 360.529412,47 C351.341176,47 345,39.5584906 345,30.0641509 Z M372.823529,30.0641509 C372.823529,23.2641509 367.905882,18.0037736 361.564706,18.0037736 C354.964706,18.0037736 350.176471,23.1358491 350.176471,30.0641509 C350.176471,36.9924528 355.094118,42.1245283 361.564706,42.1245283 C367.905882,42.1245283 372.823529,36.9924528 372.823529,30.0641509 Z" id="Shape"></path>
                <path d="M385.75,36.5590062 L385.75,18.0962733 L381,18.0962733 L381,13.8944099 L385.75,13.8944099 L385.75,6.89130435 L390.75,6 L390.75,13.8944099 L401.625,13.8944099 L401.625,18.0962733 L390.75,18.0962733 L390.75,36.6863354 C390.75,41.1428571 392.625,42.4161491 395.125,42.4161491 C397,42.4161491 398.875,41.7795031 400.375,40.6335404 L402,44.5807453 C399.875,46.1086957 397.25,47 394.625,47 C389,46.8726708 385.75,44.1987578 385.75,36.5590062 Z" id="Path"></path>
                <path d="M404,5.44192635 C404,3.52974504 405.45283,2.12747875 407.433962,2 C407.433962,2 407.433962,2 407.433962,2 C409.415094,2 411,3.52974504 411,5.44192635 C411,7.35410765 409.415094,8.75637394 407.566038,8.75637394 C407.566038,8.75637394 407.566038,8.75637394 407.566038,8.75637394 C405.584906,8.88385269 404,7.35410765 404,5.44192635 C404,5.5694051 404,5.5694051 404,5.44192635 Z M404.792453,14.6203966 L410.075472,14.6203966 L410.075472,47 L404.792453,47 L404.792453,14.6203966 Z" id="Shape"></path>
                <path d="M415.12686,30.1909932 C415,20.7686564 422.484725,13.1289238 431.872346,13.0015949 C441.259967,12.8742661 448.871551,20.3866698 448.998411,29.8090066 C449.125271,39.2313435 441.640546,46.871076 432.252925,46.9984049 C432.126065,46.9984049 432.126065,46.9984049 431.999205,46.9984049 C422.738444,47.1257338 415.12686,39.6133301 415,30.445651 C415.12686,30.3183221 415.12686,30.3183221 415.12686,30.1909932 Z M443.924021,30.1909932 C444.177741,23.6972205 438.976491,18.2220789 432.506644,17.9674211 C426.036798,17.7127634 420.581829,22.9332473 420.328109,29.42702 C420.328109,29.6816777 420.328109,29.9363355 420.328109,30.1909932 C420.07439,36.6847659 425.275639,42.1599076 431.745486,42.4145654 C438.215333,42.6692231 443.670302,37.4487392 443.924021,30.9549665 C443.924021,30.7003087 443.924021,30.445651 443.924021,30.1909932 Z" id="Shape"></path>
                <path d="M453,14.7662032 L458.090909,14.7662032 L458.090909,20.2231058 C460.381818,16.2890597 464.709091,13.8778702 469.290909,14.0047749 C477.436364,14.0047749 481,18.9540587 481,27.4566744 L481,47 L475.909091,47 L475.909091,28.0911979 C475.909091,22.1266765 473.745455,18.9540587 467.890909,18.9540587 C462.545455,18.827154 458.090909,23.1419142 458.090909,28.4719121 C458.090909,28.5988168 458.090909,28.7257215 458.090909,28.8526262 L458.090909,47 L453,47 L453,14.7662032 Z" id="Path"></path>
                <path d="M65.2875696,45.1630435 L69,50.5271739 C66.4397032,53.0815217 57.7346939,61 44.5491651,61 C25.987013,61 24.8348794,47.3342391 6.27272727,47.3342391 L1.02411874,47.3342391 L0,41.7146739 L20.8664193,20.513587 L4.73654917,20.513587 L6.01669759,14 L32.5157699,14 L31.3636364,19.875 L11.1372913,40.5652174 C26.6270872,40.5652174 30.4675325,54.6141304 45.8293135,54.6141304 C55.0463822,54.6141304 62.5992579,48.1005435 65.2875696,45.1630435 Z" id="Path"></path>
                <path d="M51.3139535,13 C39.9302326,13 32,22.9080882 32,34.2316176 C32,42.2095588 37.244186,48 45.6860465,48 C57.0697674,48 65,38.2205882 65,26.7683824 C65,19.4338235 60.2674419,13 51.3139535,13 Z M46.7093023,41.8235294 C42.6162791,41.8235294 40.1860465,38.6066176 40.1860465,33.9742647 C40.1860465,27.6691176 43.8953488,19.1764706 50.2906977,19.1764706 C55.1511628,19.1764706 56.6860465,23.4227941 56.6860465,26.8970588 C56.6860465,33.5882353 52.7209302,41.8235294 46.7093023,41.8235294 Z" id="Shape"></path>
                <path d="M99,22.4871795 C99,16.8461538 94.7327586,13 88.137931,13 C76.5,13 69,24.025641 69,34.1538462 C69,42.3589744 73.5258621,48 82.8362069,48 C86.9741379,48 90.9827586,47.2307692 94.7327586,45.4358974 L93.9568966,39.5384615 C91.112069,40.9487179 87.8793103,41.7179487 84.6465517,41.7179487 C81.4137931,41.7179487 79.0862069,40.5641026 77.6637931,38.2564103 C76.887931,36.8461538 76.6293103,35.1794872 76.7586207,33.5128205 C89.9482759,33.8974359 99,31.0769231 99,22.4871795 Z M87.1034483,19.025641 C89.6896552,19.025641 91.3706897,20.3076923 91.3706897,22.4871795 L91.3706897,22.4871795 C91.3706897,26.4615385 86.0689655,27.6153846 77.6637931,27.4871795 C78.6982759,23.5128205 82.0603448,19.025641 87.1034483,19.025641 Z" id="Shape"></path>
                <path d="M153.59204,18.9326022 C155.791045,18.9326022 157.99005,19.4470694 159.930348,20.4760038 L162,14.6882476 C159.542289,13.5306964 156.825871,12.8876123 153.9801,13.0162292 C145.960199,13.0162292 140.268657,17.5178173 140.268657,24.0772743 C140.268657,27.9357785 143.114428,30.7653482 146.995025,32.8232171 C150.358209,34.4952355 151.393035,35.9100204 151.393035,37.9678892 C151.393035,40.0257581 149.452736,42.083627 146.218905,42.083627 C143.373134,41.9550102 140.656716,41.1833094 138.069652,39.7685245 L136,45.5562807 C138.845771,47.2282992 142.079602,48 145.442786,48 C153.59204,48 159.800995,43.8842623 159.800995,36.4244876 C159.800995,32.180133 156.437811,29.3505633 152.81592,27.4213113 C149.970149,26.1351432 148.547264,24.7203584 148.547264,22.7911063 C148.547264,20.6046206 150.616915,18.9326022 153.59204,18.9326022 Z" id="Path"></path>
                <path d="M130.126761,4.74964785 C130,2.25314533 132.15493,0.00629306677 134.690141,0.00629306677 C134.690141,0.00629306677 134.816901,0.00629306677 134.816901,0.00629306677 C137.098592,-0.118532059 139,1.6290197 139,3.87587197 C139,4.00069709 139,4.12552222 139,4.25034734 C139,6.87167499 136.971831,8.868877 134.309859,8.99370213 C134.183099,8.99370213 134.183099,8.99370213 134.056338,8.99370213 L134.056338,8.99370213 C131.901408,9.11852725 130,7.37097549 130,5.24894835 C130.126761,4.9992981 130.126761,4.87447297 130.126761,4.74964785 Z" id="Path"></path>
                <polygon id="Path" points="123 47 130.75 47 137 14 129.125 14"></polygon>
                <path d="M114.018072,41.4537313 C111.740964,41.4537313 110.475904,40.041791 111.108434,36.961194 L114.39759,19.761194 L121.73494,19.761194 L123,13.6 L115.536145,13.6 L117.180723,5 L108.957831,7.43880597 L107.692771,13.6 L103.138554,13.6 L102,19.761194 L106.680723,19.761194 L103.26506,37.6029851 C102,44.0208955 105.289157,48 112.5,48 C114.271084,47.8716418 116.042169,47.6149254 117.686747,47.1014925 L117.939759,40.9402985 C116.674699,41.1970149 115.409639,41.4537313 114.018072,41.4537313 Z" id="Path"></path>
            </g>
        </g>
    </g>
</svg>
